<?xml version="1.0" encoding="UTF-8" standalone="no"?>
<!-- Created with Inkscape (http://www.inkscape.org/) -->

<svg
   xmlns:dc="http://purl.org/dc/elements/1.1/"
   xmlns:cc="http://creativecommons.org/ns#"
   xmlns:rdf="http://www.w3.org/1999/02/22-rdf-syntax-ns#"
   xmlns:svg="http://www.w3.org/2000/svg"
   xmlns="http://www.w3.org/2000/svg"
   xmlns:sodipodi="http://sodipodi.sourceforge.net/DTD/sodipodi-0.dtd"
   xmlns:inkscape="http://www.inkscape.org/namespaces/inkscape"
   width="40"
   height="80"
   id="svg2"
   version="1.1"
   inkscape:version="0.48.2 r9819"
   sodipodi:docname="lifecycle.svg"
   inkscape:export-filename="D:\entarch\projects\Gnosis2\lifecycle.png"
   inkscape:export-xdpi="100.01"
   inkscape:export-ydpi="100.01">
  <defs
     id="defs4" />
  <sodipodi:namedview
     id="base"
     pagecolor="#ffffff"
     bordercolor="#666666"
     borderopacity="1.0"
     inkscape:pageopacity="0.0"
     inkscape:pageshadow="2"
     inkscape:zoom="2.8284272"
     inkscape:cx="56.162804"
     inkscape:cy="33.098342"
     inkscape:document-units="px"
     inkscape:current-layer="layer1"
     showgrid="true"
     inkscape:window-width="1016"
     inkscape:window-height="773"
     inkscape:window-x="270"
     inkscape:window-y="68"
     inkscape:window-maximized="0"
     inkscape:snap-global="false">
    <inkscape:grid
       type="xygrid"
       id="grid2985"
       empspacing="5"
       visible="true"
       enabled="true"
       snapvisiblegridlinesonly="true" />
  </sodipodi:namedview>
  <metadata
     id="metadata7">
    <rdf:RDF>
      <cc:Work
         rdf:about="">
        <dc:format>image/svg+xml</dc:format>
        <dc:type
           rdf:resource="http://purl.org/dc/dcmitype/StillImage" />
        <dc:title></dc:title>
      </cc:Work>
    </rdf:RDF>
  </metadata>
  <g
     inkscape:label="Layer 1"
     inkscape:groupmode="layer"
     id="layer1"
     transform="translate(0,-972.36217)">
    <path
       sodipodi:type="arc"
       style="fill:#ff00ff;stroke:#000000;stroke-width:0.66666669;stroke-miterlimit:4;stroke-dasharray:none"
       id="path2987"
       sodipodi:cx="10"
       sodipodi:cy="0"
       sodipodi:rx="5"
       sodipodi:ry="5"
       d="M 15,0 A 5,5 0 1 1 5,0 5,5 0 1 1 15,0 z"
       transform="matrix(1.5,0,0,1.5,-4.9696699,982.3925)" />
    <path
       sodipodi:type="arc"
       style="fill:#00ffff;stroke:#000000;stroke-width:1;stroke-miterlimit:4;stroke-dasharray:none"
       id="path3000"
       sodipodi:cx="32.5"
       sodipodi:cy="7.5"
       sodipodi:rx="7.5"
       sodipodi:ry="7.5"
       d="m 40,7.5 a 7.5,7.5 0 1 1 -15,0 7.5,7.5 0 1 1 15,0 z"
       transform="translate(-2.4696699,974.8925)" />
    <path
       sodipodi:type="arc"
       style="fill:#ffff00;stroke:#000000;stroke-width:0.66666669;stroke-miterlimit:4;stroke-dasharray:none"
       id="path2987-1"
       sodipodi:cx="10"
       sodipodi:cy="0"
       sodipodi:rx="5"
       sodipodi:ry="5"
       d="M 15,0 A 5,5 0 1 1 5,0 5,5 0 1 1 15,0 z"
       transform="matrix(1.5,0,0,1.5,-4.9696699,1022.3925)" />
    <path
       sodipodi:type="arc"
       style="fill:#808000;stroke:#000000;stroke-width:1;stroke-miterlimit:4;stroke-dasharray:none"
       id="path3000-7"
       sodipodi:cx="32.5"
       sodipodi:cy="7.5"
       sodipodi:rx="7.5"
       sodipodi:ry="7.5"
       d="m 40,7.5 a 7.5,7.5 0 1 1 -15,0 7.5,7.5 0 1 1 15,0 z"
       transform="translate(-2.4696694,994.8925)" />
    <path
       sodipodi:type="arc"
       style="fill:#00ff00;stroke:#000000;stroke-width:0.66666669;stroke-miterlimit:4;stroke-dasharray:none"
       id="path2987-1-4"
       sodipodi:cx="10"
       sodipodi:cy="0"
       sodipodi:rx="5"
       sodipodi:ry="5"
       d="M 15,0 A 5,5 0 1 1 5,0 5,5 0 1 1 15,0 z"
       transform="matrix(1.5,0,0,1.5,-4.9696699,1002.3925)" />
    <path
       sodipodi:type="arc"
       style="fill:#ff0000;stroke:#000000;stroke-width:0.66666669;stroke-miterlimit:4;stroke-dasharray:none"
       id="path2987-1-0"
       sodipodi:cx="10"
       sodipodi:cy="0"
       sodipodi:rx="5"
       sodipodi:ry="5"
       d="M 15,0 A 5,5 0 1 1 5,0 5,5 0 1 1 15,0 z"
       transform="matrix(1.5,0,0,1.5,15.03033,1022.3925)" />
    <path
       sodipodi:type="arc"
       style="fill:#000000;stroke-width:0.66666669;stroke-miterlimit:4;stroke-dasharray:none"
       id="path2987-1-9"
       sodipodi:cx="10"
       sodipodi:cy="0"
       sodipodi:rx="5"
       sodipodi:ry="5"
       d="M 15,0 A 5,5 0 1 1 5,0 5,5 0 1 1 15,0 z"
       transform="matrix(1.5,0,0,1.5,-4.9696699,1042.3925)" />
    <path
       sodipodi:type="arc"
       style="fill:#666666;stroke-width:0.66666669000000001;stroke-miterlimit:4;stroke-dasharray:none;stroke:#000000"
       id="path2987-1-9-1"
       sodipodi:cx="10"
       sodipodi:cy="0"
       sodipodi:rx="5"
       sodipodi:ry="5"
       d="M 15,0 A 5,5 0 1 1 5,0 5,5 0 1 1 15,0 z"
       transform="matrix(1.5,0,0,1.5,14.96365,1042.3743)" />
  </g>
</svg>
